<svg version="1.1" viewBox="0.0 0.0 960.0 720.0" fill="none" stroke="none" stroke-linecap="square" stroke-miterlimit="10" xmlns:xlink="http://www.w3.org/1999/xlink" xmlns="http://www.w3.org/2000/svg"><clipPath id="p.0"><path d="m0 0l960.0 0l0 720.0l-960.0 0l0 -720.0z" clip-rule="nonzero"/></clipPath><g clip-path="url(#p.0)"><path fill="#000000" fill-opacity="0.0" d="m0 0l960.0 0l0 720.0l-960.0 0z" fill-rule="evenodd"/><path fill="#6fa8dc" d="m145.2749 212.23999l0 0c-5.8569336 -32.586334 13.372574 -64.84482 49.528763 -83.087006c36.156204 -18.242188 82.898056 -19.268784 120.39125 -2.644165l0 0c13.28125 -18.947044 37.589813 -32.02867 65.572784 -35.28794c27.983002 -3.2592773 56.35373 3.6866226 76.53061 18.736694l0 0c11.313904 -17.178612 33.52896 -28.720444 58.762115 -30.529854c25.233154 -1.8094101 49.91327 6.3696823 65.28259 21.634895l0 0c20.440247 -18.209282 52.96118 -25.876144 83.49078 -19.683098c30.529663 6.1930466 53.584595 25.133682 59.188843 48.626175l0 0c25.042725 5.171524 45.902832 18.318192 57.190674 36.04335c11.287842 17.725143 11.896118 38.289978 1.6677246 56.381195l0 0c24.65979 24.298492 30.428345 56.675934 15.152893 85.04965c-15.275452 28.373688 -49.299866 48.480835 -89.37604 52.81781c-0.2824707 26.62973 -19.572998 51.06485 -50.43622 63.887024c-30.863281 12.822144 -68.47974 12.029083 -98.350464 -2.0734863l0 0c-12.723389 31.893707 -48.53534 55.36081 -91.963806 60.262634c-43.428497 4.901825 -86.68811 -9.640381 -111.08908 -37.34384l0 0c-29.910492 13.655121 -65.8006 17.588715 -99.57422 10.913483c-33.77362 -6.6752625 -62.585846 -23.397064 -79.937225 -46.39334l0 0c-30.564758 2.7078552 -60.11667 -9.281097 -73.989204 -30.016754c-13.872543 -20.735687 -9.112579 -45.803986 11.917519 -62.76361l0 0c-27.264557 -12.149048 -41.176582 -36.256805 -34.48149 -59.751984c6.6950912 -23.495224 32.480164 -41.053772 63.9093 -43.519592z" fill-rule="evenodd"/><path fill="#000000" fill-opacity="0.0" d="m115.24292 316.7675l0 0c12.866226 5.733185 27.729736 8.333893 42.594864 7.452942m19.470123 85.32947c6.3925476 -0.5663452 12.658463 -1.765625 18.636154 -3.566986m160.86636 39.04538c-4.4961243 -5.1046143 -8.260498 -10.559357 -11.228973 -16.27124m214.28958 -6.6484985l0 0c2.3197021 -5.8146973 3.8226318 -11.799286 4.4837646 -17.853912m144.29736 -43.957397c0.3007202 -28.35147 -20.969055 -54.310364 -54.67334 -66.72656m128.89569 -71.13791c-5.458252 9.654221 -13.790955 18.218338 -24.344727 25.020874m-34.508545 -117.44794l0 0c0.9300537 3.89859 1.3604736 7.8557587 1.2852783 11.816696m-143.9624 -40.758606l0 0c-5.098877 4.5423126 -9.299622 9.618286 -12.471497 15.06987m-111.57443 -6.176895l0 0c-2.7172241 4.1257477 -4.746277 8.491493 -6.0404053 12.996674m-136.06503 3.5549164l0 0c7.9335327 3.5177612 15.273132 7.7517548 21.857574 12.608994m-191.77542 73.122635l0 0c0.807251 4.4912415 2.082718 8.927109 3.814499 13.266098" fill-rule="evenodd"/><path stroke="#000000" stroke-width="1.0" stroke-linejoin="round" stroke-linecap="butt" d="m145.2749 212.23999l0 0c-5.8569336 -32.586334 13.372574 -64.84482 49.528763 -83.087006c36.156204 -18.242188 82.898056 -19.268784 120.39125 -2.644165l0 0c13.28125 -18.947044 37.589813 -32.02867 65.572784 -35.28794c27.983002 -3.2592773 56.35373 3.6866226 76.53061 18.736694l0 0c11.313904 -17.178612 33.52896 -28.720444 58.762115 -30.529854c25.233154 -1.8094101 49.91327 6.3696823 65.28259 21.634895l0 0c20.440247 -18.209282 52.96118 -25.876144 83.49078 -19.683098c30.529663 6.1930466 53.584595 25.133682 59.188843 48.626175l0 0c25.042725 5.171524 45.902832 18.318192 57.190674 36.04335c11.287842 17.725143 11.896118 38.289978 1.6677246 56.381195l0 0c24.65979 24.298492 30.428345 56.675934 15.152893 85.04965c-15.275452 28.373688 -49.299866 48.480835 -89.37604 52.81781c-0.2824707 26.62973 -19.572998 51.06485 -50.43622 63.887024c-30.863281 12.822144 -68.47974 12.029083 -98.350464 -2.0734863l0 0c-12.723389 31.893707 -48.53534 55.36081 -91.963806 60.262634c-43.428497 4.901825 -86.68811 -9.640381 -111.08908 -37.34384l0 0c-29.910492 13.655121 -65.8006 17.588715 -99.57422 10.913483c-33.77362 -6.6752625 -62.585846 -23.397064 -79.937225 -46.39334l0 0c-30.564758 2.7078552 -60.11667 -9.281097 -73.989204 -30.016754c-13.872543 -20.735687 -9.112579 -45.803986 11.917519 -62.76361l0 0c-27.264557 -12.149048 -41.176582 -36.256805 -34.48149 -59.751984c6.6950912 -23.495224 32.480164 -41.053772 63.9093 -43.519592z" fill-rule="evenodd"/><path stroke="#000000" stroke-width="1.0" stroke-linejoin="round" stroke-linecap="butt" d="m115.24292 316.7675l0 0c12.866226 5.733185 27.729736 8.333893 42.594864 7.452942m19.470123 85.32947c6.3925476 -0.5663452 12.658463 -1.765625 18.636154 -3.566986m160.86636 39.04538c-4.4961243 -5.1046143 -8.260498 -10.559357 -11.228973 -16.27124m214.28958 -6.6484985l0 0c2.3197021 -5.8146973 3.8226318 -11.799286 4.4837646 -17.853912m144.29736 -43.957397c0.3007202 -28.35147 -20.969055 -54.310364 -54.67334 -66.72656m128.89569 -71.13791c-5.458252 9.654221 -13.790955 18.218338 -24.344727 25.020874m-34.508545 -117.44794l0 0c0.9300537 3.89859 1.3604736 7.8557587 1.2852783 11.816696m-143.9624 -40.758606l0 0c-5.098877 4.5423126 -9.299622 9.618286 -12.471497 15.06987m-111.57443 -6.176895l0 0c-2.7172241 4.1257477 -4.746277 8.491493 -6.0404053 12.996674m-136.06503 3.5549164l0 0c7.9335327 3.5177612 15.273132 7.7517548 21.857574 12.608994m-191.77542 73.122635l0 0c0.807251 4.4912415 2.082718 8.927109 3.814499 13.266098" fill-rule="evenodd"/></g></svg>