<svg version="1.1" viewBox="0.0 0.0 960.0 720.0" fill="none" stroke="none" stroke-linecap="square" stroke-miterlimit="10" xmlns:xlink="http://www.w3.org/1999/xlink" xmlns="http://www.w3.org/2000/svg"><clipPath id="p.0"><path d="m0 0l960.0 0l0 720.0l-960.0 0l0 -720.0z" clip-rule="nonzero"/></clipPath><g clip-path="url(#p.0)"><path fill="#000000" fill-opacity="0.0" d="m0 0l960.0 0l0 720.0l-960.0 0z" fill-rule="evenodd"/><g filter="url(#shadowFilter-p.1)"><use xlink:href="#p.1" transform="matrix(1.0 0.0 0.0 1.0 6.251334383202097 35.453079265091866)"/></g><defs><filter id="shadowFilter-p.1" filterUnits="userSpaceOnUse"><feGaussianBlur in="SourceAlpha" stdDeviation="9.5" result="blur"/><feComponentTransfer in="blur" color-interpolation-filters="sRGB"><feFuncR type="linear" slope="0" intercept="0.0"/><feFuncG type="linear" slope="0" intercept="0.0"/><feFuncB type="linear" slope="0" intercept="0.0"/><feFuncA type="linear" slope="0.48" intercept="0"/></feComponentTransfer></filter></defs><g id="p.1"><path fill="#f3f3f3" d="m856.80695 472.43713l0 0c-450.19467 -7.8798523 -814.5009 -51.523254 -813.7008 -97.480316c0.80015945 -45.95706 366.40372 -76.82474 816.5984 -68.944885l0 0c-256.91632 15.152954 -408.45358 43.33902 -409.02362 76.078735c-0.57003784 32.739716 149.89374 66.21176 406.12598 90.346466z" fill-rule="evenodd"/><path stroke="#000000" stroke-width="1.0" stroke-linejoin="round" stroke-linecap="butt" d="m856.80695 472.43713l0 0c-450.19467 -7.8798523 -814.5009 -51.523254 -813.7008 -97.480316c0.80015945 -45.95706 366.40372 -76.82474 816.5984 -68.944885l0 0c-256.91632 15.152954 -408.45358 43.33902 -409.02362 76.078735c-0.57003784 32.739716 149.89374 66.21176 406.12598 90.346466z" fill-rule="evenodd"/></g></g></svg>