<?xml version="1.0" standalone="no"?>
<!DOCTYPE svg PUBLIC "-//W3C//DTD SVG 20010904//EN"
 "http://www.w3.org/TR/2001/REC-SVG-20010904/DTD/svg10.dtd">
<svg version="1.0" xmlns="http://www.w3.org/2000/svg"
 width="300.000000pt" height="420.000000pt" viewBox="0 0 300.000000 420.000000"
 preserveAspectRatio="xMidYMid meet">
<metadata>
Created by potrace 1.10, written by Peter Selinger 2001-2011
</metadata>
<g transform="translate(0.000000,420.000000) scale(0.100000,-0.100000)"
fill="#000000" stroke="none">
<path d="M1380 3330 c0 -27 -3 -30 -30 -30 -30 0 -30 0 -30 -60 0 -60 0 -60
-30 -60 -27 0 -30 3 -30 30 0 27 -3 30 -30 30 -27 0 -30 3 -30 30 0 27 -3 30
-30 30 -30 0 -30 0 -30 -60 0 -60 0 -60 -30 -60 -30 0 -30 0 -30 -60 0 -60 0
-60 30 -60 30 0 30 0 30 60 l0 60 60 0 c60 0 60 0 60 -30 0 -27 3 -30 30 -30
27 0 30 3 30 30 0 27 3 30 30 30 30 0 30 0 30 60 0 60 0 60 30 60 30 0 30 0
30 -60 0 -60 0 -60 30 -60 27 0 30 -3 30 -30 0 -27 3 -30 30 -30 27 0 30 3 30
30 0 27 3 30 30 30 30 0 30 0 30 60 0 60 0 60 30 60 l30 0 0 -90 0 -90 30 0
30 0 0 90 0 90 -30 0 c-27 0 -30 3 -30 30 0 27 -3 30 -30 30 -27 0 -30 -3 -30
-30 0 -27 -3 -30 -30 -30 -30 0 -30 0 -30 -60 0 -60 0 -60 -30 -60 -30 0 -30
0 -30 60 0 60 0 60 -30 60 -27 0 -30 3 -30 30 0 27 -3 30 -30 30 -27 0 -30 -3
-30 -30z"/>
<path d="M1860 3210 c0 -27 -3 -30 -30 -30 -30 0 -30 0 -30 -60 0 -60 0 -60
30 -60 30 0 30 0 30 60 0 60 0 60 30 60 30 0 30 0 30 -60 0 -60 0 -60 30 -60
30 0 30 0 30 -60 0 -60 0 -60 -30 -60 -27 0 -30 -3 -30 -30 0 -27 3 -30 30
-30 27 0 30 -3 30 -30 0 -27 -3 -30 -30 -30 -30 0 -30 0 -30 -60 l0 -60 -450
0 -450 0 0 60 c0 60 0 60 -30 60 -27 0 -30 3 -30 30 0 27 3 30 30 30 30 0 30
0 30 60 0 60 0 60 -30 60 -27 0 -30 3 -30 30 0 27 3 30 30 30 30 0 30 0 30 60
0 60 0 60 -30 60 -30 0 -30 0 -30 -60 0 -60 0 -60 -30 -60 -27 0 -30 -3 -30
-30 0 -27 3 -30 30 -30 30 0 30 0 30 -60 0 -60 0 -60 -30 -60 -27 0 -30 -3
-30 -30 0 -27 3 -30 30 -30 30 0 30 0 30 -60 0 -60 0 -60 30 -60 l30 0 0 -120
0 -120 30 0 c27 0 30 -3 30 -30 0 -27 3 -30 30 -30 27 0 30 -3 30 -30 0 -27 3
-30 30 -30 27 0 30 3 30 30 0 27 -3 30 -30 30 -27 0 -30 3 -30 30 l0 30 120 0
120 0 0 30 0 30 90 0 90 0 0 -30 0 -30 120 0 120 0 0 -30 c0 -27 -3 -30 -30
-30 -27 0 -30 -3 -30 -30 0 -27 3 -30 30 -30 27 0 30 3 30 30 0 27 3 30 30 30
27 0 30 3 30 30 0 27 3 30 30 30 l30 0 0 120 0 120 30 0 c30 0 30 0 30 60 0
60 0 60 30 60 27 0 30 3 30 30 0 27 -3 30 -30 30 -27 0 -30 3 -30 30 0 27 3
30 30 30 30 0 30 0 30 60 0 60 0 60 -30 60 -30 0 -30 0 -30 60 0 60 0 60 -30
60 -27 0 -30 3 -30 30 0 27 -3 30 -30 30 -27 0 -30 -3 -30 -30z m0 -607 l0
-73 -25 12 c-22 10 -29 8 -53 -15 -25 -24 -36 -27 -102 -27 -65 0 -77 3 -100
25 -23 22 -36 25 -107 27 -78 2 -82 1 -118 -30 -36 -32 -39 -33 -108 -28 -48
4 -74 11 -79 21 -15 25 -46 37 -68 25 -19 -10 -20 -8 -20 62 l0 73 390 0 390
0 0 -72z m-720 -113 c0 -27 -3 -30 -30 -30 -27 0 -30 3 -30 30 0 27 3 30 30
30 27 0 30 -3 30 -30z m720 0 c0 -27 -3 -30 -30 -30 -27 0 -30 3 -30 30 0 27
3 30 30 30 27 0 30 -3 30 -30z"/>
<path d="M1370 3105 c0 -20 -5 -25 -25 -25 -14 0 -25 -4 -25 -10 0 -5 -13 -10
-30 -10 -27 0 -30 -3 -30 -30 0 -27 3 -30 30 -30 30 0 30 0 30 -60 0 -60 0
-60 30 -60 30 0 30 0 30 60 0 60 0 60 -30 60 -27 0 -30 3 -30 30 0 27 3 30 30
30 28 0 30 3 30 35 0 19 -2 35 -5 35 -3 0 -5 -11 -5 -25z m-4 -139 c8 -33 2
-69 -13 -73 -16 -5 -27 39 -19 72 8 32 24 32 32 1z"/>
<path d="M1552 3052 c-2 -24 -8 -35 -24 -42 -22 -8 -22 -9 5 -9 26 -1 27 -2
27 -61 0 -60 0 -60 -30 -60 -30 0 -30 0 -30 -60 0 -60 0 -60 -30 -60 -16 0
-30 -4 -30 -9 0 -4 13 -8 30 -7 16 1 30 4 30 9 0 4 14 7 30 7 30 0 30 0 30 60
0 60 0 60 30 60 27 0 30 -3 30 -30 0 -27 3 -30 30 -30 27 0 30 3 30 30 0 27 3
30 30 30 30 0 30 0 30 -60 0 -60 0 -60 -30 -60 -16 0 -30 -4 -30 -9 0 -4 13
-8 30 -7 16 1 30 4 30 9 0 4 14 7 30 7 30 0 30 0 30 60 l0 60 43 2 c36 1 38 2
10 5 -24 3 -33 9 -33 23 0 10 8 21 18 23 10 3 6 5 -10 6 -25 1 -28 -3 -28 -29
0 -27 -3 -30 -30 -30 -30 0 -30 0 -30 60 0 60 0 60 -30 60 -27 0 -30 3 -30 30
0 27 3 30 30 30 17 0 30 4 30 9 0 4 -13 8 -30 7 -16 -1 -30 -4 -30 -8 0 -5
-13 -8 -30 -8 -27 0 -30 -3 -30 -30 0 -27 -3 -30 -29 -30 -28 0 -30 3 -34 43
-3 35 -4 36 -5 9z m128 -112 c0 -60 0 -60 -30 -60 -30 0 -30 0 -30 60 0 60 0
60 30 60 30 0 30 0 30 -60z m-76 34 c8 -20 8 -69 0 -77 -15 -15 -34 8 -34 42
0 50 20 70 34 35z m124 -38 c-4 -52 -31 -58 -36 -8 -4 45 3 63 23 56 12 -5 15
-17 13 -48z m-183 -108 c2 -35 -11 -62 -26 -52 -14 8 -11 82 4 87 17 6 19 3
22 -35z m243 3 c4 -43 -4 -62 -23 -55 -25 10 -17 99 9 91 6 -2 12 -18 14 -36z"/>
<path d="M1440 3000 c0 -60 0 -60 30 -60 26 0 30 3 29 28 0 26 -1 26 -9 5 -13
-32 -27 -29 -35 7 -8 38 1 67 23 73 10 3 6 5 -10 6 -28 1 -28 0 -28 -59z"/>
<path d="M1168 2990 c41 -17 20 -40 -38 -40 -17 0 -33 7 -39 18 -9 15 -10 15
-11 -5 0 -21 4 -23 60 -23 l60 0 0 -60 c0 -60 0 -60 -30 -60 -27 0 -30 3 -30
30 0 27 -3 30 -30 30 -26 0 -30 -3 -30 -29 0 -16 -4 -31 -8 -33 -4 -1 -5 -16
-1 -33 l7 -30 1 33 c1 29 4 32 31 32 28 0 30 -2 32 -42 1 -36 2 -38 5 -12 3
21 11 34 23 37 16 4 20 -2 23 -32 4 -36 4 -36 5 7 2 40 4 42 32 42 27 0 30 -3
30 -30 0 -27 3 -30 30 -30 27 0 30 3 30 30 0 27 -3 30 -30 30 -30 0 -30 0 -30
60 0 60 0 60 -30 60 -27 0 -30 3 -30 30 0 26 -3 30 -27 29 -27 0 -27 -1 -5 -9z
m82 -107 c0 -33 -10 -52 -26 -46 -18 7 -19 80 -1 86 15 5 27 -11 27 -40z"/>
<path d="M1260 2310 c0 -27 -3 -30 -30 -30 -30 0 -30 0 -30 -60 0 -60 0 -60
-30 -60 -27 0 -30 -3 -30 -30 0 -27 -3 -30 -30 -30 -30 0 -30 0 -30 -60 0 -60
0 -60 30 -60 27 0 30 -3 30 -30 0 -27 3 -30 30 -30 l30 0 0 -90 0 -90 30 0
c30 0 30 0 30 -60 0 -60 0 -60 30 -60 27 0 30 -3 30 -30 0 -30 0 -30 60 -30
l60 0 0 90 0 90 30 0 30 0 0 -90 0 -90 60 0 c60 0 60 0 60 30 0 27 3 30 30 30
30 0 30 0 30 60 0 60 0 60 30 60 l30 0 0 90 0 90 30 0 c27 0 30 3 30 30 0 27
3 30 30 30 30 0 30 0 30 60 0 60 0 60 -30 60 -27 0 -30 3 -30 30 0 27 -3 30
-30 30 -30 0 -30 0 -30 60 0 60 0 60 -30 60 -27 0 -30 3 -30 30 0 30 0 30 -60
30 -60 0 -60 0 -60 -30 l0 -30 -90 0 -90 0 0 30 c0 30 0 30 -60 30 -60 0 -60
0 -60 -30z m210 -60 l85 0 32 37 32 38 1 -52 0 -53 -150 0 -150 0 0 53 1 52
32 -38 32 -37 85 0z m238 -92 c21 -2 28 -9 30 -30 3 -21 9 -27 30 -30 19 -2
28 -10 30 -25 3 -20 1 -21 -27 -10 -23 8 -39 9 -61 0 -28 -11 -30 -10 -30 13
0 20 -5 24 -30 24 -30 0 -30 0 -30 -60 0 -60 0 -60 30 -60 27 0 30 3 30 30 0
30 0 30 60 30 60 0 60 0 60 -30 0 -30 0 -30 -60 -30 -60 0 -60 0 -60 -30 0
-27 -3 -30 -30 -30 -27 0 -30 3 -30 30 0 27 -3 30 -30 30 -27 0 -30 -3 -30
-30 0 -27 3 -30 30 -30 25 0 30 -4 30 -25 0 -30 4 -31 30 -5 35 35 50 26 50
-30 0 -27 -4 -50 -9 -50 -6 0 -11 -15 -13 -32 -2 -27 -8 -34 -30 -36 -25 -3
-27 -7 -30 -60 -3 -54 -5 -57 -30 -60 -28 -3 -28 -3 -28 57 0 58 -1 61 -24 61
-13 0 -26 7 -30 15 -3 9 -18 15 -36 15 -18 0 -33 -6 -36 -15 -4 -8 -17 -15
-30 -15 -23 0 -24 -3 -24 -61 0 -60 0 -60 -27 -57 -26 3 -28 6 -31 60 -3 53
-5 57 -30 60 -22 2 -28 9 -30 36 -2 17 -7 32 -13 32 -5 0 -9 23 -9 50 0 57 11
63 54 29 l26 -20 0 25 c0 22 4 26 30 26 27 0 30 3 30 30 0 27 -3 30 -30 30
-27 0 -30 -3 -30 -30 0 -27 -3 -30 -30 -30 -27 0 -30 3 -30 30 0 30 0 30 -60
30 -60 0 -60 0 -60 30 0 30 0 30 60 30 60 0 60 0 60 -30 0 -27 3 -30 30 -30
30 0 30 0 30 60 0 60 0 60 -30 60 -25 0 -30 -4 -30 -24 0 -23 -2 -24 -30 -13
-22 9 -38 8 -61 0 -28 -11 -30 -10 -27 10 2 15 11 23 30 25 21 3 27 9 30 30 2
21 9 28 31 30 23 3 27 8 27 33 0 26 3 29 30 29 27 0 30 -3 30 -30 0 -30 1 -30
55 -30 30 0 55 5 55 10 0 6 -16 10 -36 10 -21 0 -33 4 -29 10 3 6 52 10 111
10 63 0 104 -4 104 -10 0 -5 -16 -10 -35 -10 -19 0 -35 -4 -35 -10 0 -5 25
-10 55 -10 54 0 55 0 55 29 0 25 4 30 28 33 24 3 27 -1 30 -29 3 -26 8 -32 30
-35z"/>
<path d="M1488 2157 c-5 -10 -8 -79 -8 -152 0 -127 1 -135 22 -149 25 -18 108
-22 108 -6 0 6 -25 10 -55 10 l-54 0 -3 158 c-2 86 -6 149 -10 139z"/>
<path d="M1440 2016 c0 -91 4 -146 10 -146 6 0 10 53 10 139 0 83 -4 142 -10
146 -6 4 -10 -45 -10 -139z"/>
<path d="M1330 1850 c0 -5 23 -10 50 -10 28 0 50 5 50 10 0 6 -22 10 -50 10
-27 0 -50 -4 -50 -10z"/>
<path d="M1270 1810 c0 -6 73 -10 200 -10 127 0 200 4 200 10 0 6 -73 10 -200
10 -127 0 -200 -4 -200 -10z"/>
</g>
</svg>
