<svg version="1.1" viewBox="0.0 0.0 960.0 720.0" fill="none" stroke="none" stroke-linecap="square" stroke-miterlimit="10" xmlns:xlink="http://www.w3.org/1999/xlink" xmlns="http://www.w3.org/2000/svg"><clipPath id="p.0"><path d="m0 0l960.0 0l0 720.0l-960.0 0l0 -720.0z" clip-rule="nonzero"/></clipPath><g clip-path="url(#p.0)"><path fill="#000000" fill-opacity="0.0" d="m0 0l960.0 0l0 720.0l-960.0 0z" fill-rule="evenodd"/><path fill="#efefef" d="m469.74368 140.90814l144.42044 44.269104l-59.571777 5.2205505l181.90796 37.93454l-59.57184 6.334549l224.89178 63.513077l-381.39117 -48.67418l72.73682 -6.7568665l-236.97067 -31.177689l84.91449 -9.632889l-250.20157 -32.70671z" fill-rule="evenodd"/><path stroke="#000000" stroke-width="1.0" stroke-linejoin="round" stroke-linecap="butt" d="m469.74368 140.90814l144.42044 44.269104l-59.571777 5.2205505l181.90796 37.93454l-59.57184 6.334549l224.89178 63.513077l-381.39117 -48.67418l72.73682 -6.7568665l-236.97067 -31.177689l84.91449 -9.632889l-250.20157 -32.70671z" fill-rule="evenodd"/></g></svg>