<svg version="1.1" viewBox="0.0 0.0 960.0 720.0" fill="none" stroke="none" stroke-linecap="square" stroke-miterlimit="10" xmlns:xlink="http://www.w3.org/1999/xlink" xmlns="http://www.w3.org/2000/svg"><clipPath id="p.0"><path d="m0 0l960.0 0l0 720.0l-960.0 0l0 -720.0z" clip-rule="nonzero"/></clipPath><g clip-path="url(#p.0)"><path fill="#000000" fill-opacity="0.0" d="m0 0l960.0 0l0 720.0l-960.0 0z" fill-rule="evenodd"/><path fill="#000000" d="m446.56955 100.30971l0 0c0 -17.455673 15.377441 -31.606293 34.346466 -31.606293l0 0c18.969025 0 34.346436 14.1506195 34.346436 31.606293l0 0c0 17.45568 -15.377411 31.606308 -34.346436 31.606308l0 0c-18.969025 0 -34.346466 -14.150627 -34.346466 -31.606308z" fill-rule="evenodd"/><path stroke="#000000" stroke-width="1.0" stroke-linejoin="round" stroke-linecap="butt" d="m446.56955 100.30971l0 0c0 -17.455673 15.377441 -31.606293 34.346466 -31.606293l0 0c18.969025 0 34.346436 14.1506195 34.346436 31.606293l0 0c0 17.45568 -15.377411 31.606308 -34.346436 31.606308l0 0c-18.969025 0 -34.346466 -14.150627 -34.346466 -31.606308z" fill-rule="evenodd"/><path fill="#000000" d="m710.3517 271.1181l0 0c0 -17.455673 15.377441 -31.606293 34.346497 -31.606293l0 0c18.968994 0 34.346436 14.1506195 34.346436 31.606293l0 0c0 17.455688 -15.377441 31.606293 -34.346436 31.606293l0 0c-18.969055 0 -34.346497 -14.150604 -34.346497 -31.606293z" fill-rule="evenodd"/><path stroke="#000000" stroke-width="1.0" stroke-linejoin="round" stroke-linecap="butt" d="m710.3517 271.1181l0 0c0 -17.455673 15.377441 -31.606293 34.346497 -31.606293l0 0c18.968994 0 34.346436 14.1506195 34.346436 31.606293l0 0c0 17.455688 -15.377441 31.606293 -34.346436 31.606293l0 0c-18.969055 0 -34.346497 -14.150604 -34.346497 -31.606293z" fill-rule="evenodd"/><path fill="#000000" d="m176.73491 271.1181l0 0c0 -17.455673 15.377426 -31.606293 34.34645 -31.606293l0 0c18.969025 0 34.346466 14.1506195 34.346466 31.606293l0 0c0 17.455688 -15.377441 31.606293 -34.346466 31.606293l0 0c-18.969025 0 -34.34645 -14.150604 -34.34645 -31.606293z" fill-rule="evenodd"/><path stroke="#000000" stroke-width="1.0" stroke-linejoin="round" stroke-linecap="butt" d="m176.73491 271.1181l0 0c0 -17.455673 15.377426 -31.606293 34.34645 -31.606293l0 0c18.969025 0 34.346466 14.1506195 34.346466 31.606293l0 0c0 17.455688 -15.377441 31.606293 -34.346466 31.606293l0 0c-18.969025 0 -34.34645 -14.150604 -34.34645 -31.606293z" fill-rule="evenodd"/><path fill="#000000" d="m285.2546 560.52496l0 0c0 -17.455688 15.377411 -31.606323 34.346436 -31.606323l0 0c18.969025 0 34.346466 14.150635 34.346466 31.606323l0 0c0 17.455627 -15.377441 31.606262 -34.346466 31.606262l0 0c-18.969025 0 -34.346436 -14.150635 -34.346436 -31.606262z" fill-rule="evenodd"/><path stroke="#000000" stroke-width="1.0" stroke-linejoin="round" stroke-linecap="butt" d="m285.2546 560.52496l0 0c0 -17.455688 15.377411 -31.606323 34.346436 -31.606323l0 0c18.969025 0 34.346466 14.150635 34.346466 31.606323l0 0c0 17.455627 -15.377441 31.606262 -34.346466 31.606262l0 0c-18.969025 0 -34.346436 -14.150635 -34.346436 -31.606262z" fill-rule="evenodd"/><path fill="#000000" d="m608.1207 560.52496l0 0c0 -17.455688 15.377441 -31.606323 34.346436 -31.606323l0 0c18.969055 0 34.346497 14.150635 34.346497 31.606323l0 0c0 17.455627 -15.377441 31.606262 -34.346497 31.606262l0 0c-18.968994 0 -34.346436 -14.150635 -34.346436 -31.606262z" fill-rule="evenodd"/><path stroke="#000000" stroke-width="1.0" stroke-linejoin="round" stroke-linecap="butt" d="m608.1207 560.52496l0 0c0 -17.455688 15.377441 -31.606323 34.346436 -31.606323l0 0c18.969055 0 34.346497 14.150635 34.346497 31.606323l0 0c0 17.455627 -15.377441 31.606262 -34.346497 31.606262l0 0c-18.968994 0 -34.346436 -14.150635 -34.346436 -31.606262z" fill-rule="evenodd"/><path fill="#000000" fill-opacity="0.0" d="m331.15222 340.95538l0 0c0 -78.015656 67.051544 -141.25984 149.7638 -141.25984l0 0c39.71985 0 77.812805 14.88269 105.89899 41.374054c28.08612 26.491348 43.864807 62.42134 43.864807 99.88579l0 0c0 78.015656 -67.051575 141.25983 -149.7638 141.25983l0 0c-82.71225 0 -149.7638 -63.24417 -149.7638 -141.25983z" fill-rule="evenodd"/><path stroke="#000000" stroke-width="8.0" stroke-linejoin="round" stroke-linecap="butt" d="m331.15222 340.95538l0 0c0 -78.015656 67.051544 -141.25984 149.7638 -141.25984l0 0c39.71985 0 77.812805 14.88269 105.89899 41.374054c28.08612 26.491348 43.864807 62.42134 43.864807 99.88579l0 0c0 78.015656 -67.051575 141.25983 -149.7638 141.25983l0 0c-82.71225 0 -149.7638 -63.24417 -149.7638 -141.25983z" fill-rule="evenodd"/><path fill="#000000" fill-opacity="0.0" d="m214.3517 273.8924l263.81104 66.86615" fill-rule="evenodd"/><path stroke="#000000" stroke-width="16.0" stroke-linejoin="round" stroke-linecap="butt" d="m214.3517 273.8924l263.81104 66.86615" fill-rule="evenodd"/><path fill="#000000" fill-opacity="0.0" d="m319.69553 559.69556l156.62994 -219.84253" fill-rule="evenodd"/><path stroke="#000000" stroke-width="16.0" stroke-linejoin="round" stroke-linecap="butt" d="m319.69553 559.69556l156.62994 -219.84253" fill-rule="evenodd"/><path fill="#000000" fill-opacity="0.0" d="m666.7538 582.87396l-185.82675 -242.11023" fill-rule="evenodd"/><path stroke="#000000" stroke-width="16.0" stroke-linejoin="round" stroke-linecap="butt" d="m666.7538 582.87396l-185.82675 -242.11023" fill-rule="evenodd"/><path fill="#000000" fill-opacity="0.0" d="m744.7323 269.31235l-256.47244 68.6929" fill-rule="evenodd"/><path stroke="#000000" stroke-width="16.0" stroke-linejoin="round" stroke-linecap="butt" d="m744.7323 269.31235l-256.47244 68.6929" fill-rule="evenodd"/><path fill="#000000" fill-opacity="0.0" d="m480.91602 97.09974l0.9133911 240.0" fill-rule="evenodd"/><path stroke="#000000" stroke-width="16.0" stroke-linejoin="round" stroke-linecap="butt" d="m480.91602 97.09974l0.9133911 240.0" fill-rule="evenodd"/><path fill="#000000" d="m472.6719 331.60367l15.590576 0l0 10.992126l-15.590576 0z" fill-rule="evenodd"/><path stroke="#000000" stroke-width="1.0" stroke-linejoin="round" stroke-linecap="butt" d="m472.6719 331.60367l15.590576 0l0 10.992126l-15.590576 0z" fill-rule="evenodd"/></g></svg>